<?xml version="1.0" encoding="UTF-8"?>
<svg width="512" height="512" viewBox="0 0 512 512" fill="none" xmlns="http://www.w3.org/2000/svg">
  <rect width="512" height="512" rx="256" fill="#000000"/>
  <path d="M256 120C181.189 120 120 181.189 120 256C120 330.811 181.189 392 256 392C330.811 392 392 330.811 392 256C392 181.189 330.811 120 256 120ZM256 160C308.603 160 352 203.397 352 256C352 308.603 308.603 352 256 352C203.397 352 160 308.603 160 256C160 203.397 203.397 160 256 160Z" fill="#FFFFFF"/>
  <circle cx="256" cy="256" r="60" fill="#00AAFF"/>
</svg>
